<?xml version="1.0" encoding="UTF-8"?>
<svg width="24px" height="24px" viewBox="0 0 24 24" version="1.1" xmlns="http://www.w3.org/2000/svg" xmlns:xlink="http://www.w3.org/1999/xlink">
    <!-- Generator: Sketch 50.2 (55047) - http://www.bohemiancoding.com/sketch -->
    <title>Icon_Tick</title>
    <desc>Created with Sketch.</desc>
    <defs></defs>
    <g id="Kiosk" stroke="none" stroke-width="1" fill="none" fill-rule="evenodd">
        <g id="Mobilet_Kiosk_02_TicketPrint_Wallet_Secili" transform="translate(-107.000000, -246.000000)" fill="#6C31ED">
            <g id="Total" transform="translate(0.000000, 218.000000)">
                <g id="Cta-Copy" transform="translate(87.000000, 0.000000)">
                    <path d="M32,52 C25.3835,52 20,46.617 20,40 C20,33.383 25.3835,28 32,28 C38.6165,28 44,33.383 44,40 C44,46.617 38.6165,52 32,52 Z M32,31 C27.0375,31 23,35.0375 23,40 C23,44.9625 27.0375,49 32,49 C36.9625,49 41,44.9625 41,40 C41,35.0375 36.9625,31 32,31 Z" id="Icon_Tick"></path>
                </g>
            </g>
        </g>
    </g>
</svg>