<svg width="54px" height="54px" viewBox="0 0 54 54" version="1.1" xmlns="http://www.w3.org/2000/svg" xmlns:xlink="http://www.w3.org/1999/xlink">
    <!-- Generator: Sketch 50.2 (55047) - http://www.bohemiancoding.com/sketch -->
    <desc>Created with Sketch.</desc>
    <defs></defs>
    <g id="Kiosk" stroke="none" stroke-width="1" fill="none" fill-rule="evenodd">
        <g id="Mobilet_Kiosk_QRPrint_06" transform="translate(-485.000000, -228.000000)">
            <g id="Group" transform="translate(485.000000, 228.000000)">
                <circle id="Icon_Base" fill="#FF4800" cx="27" cy="27" r="27"></circle>
                <path d="M27,45 C17.07525,45 9,36.9255 9,27 C9,17.0745 17.07525,9 27,9 C36.92475,9 45,17.0745 45,27 C45,36.9255 36.92475,45 27,45 M27,13.5 C19.55625,13.5 13.5,19.55625 13.5,27 C13.5,34.44375 19.55625,40.5 27,40.5 C34.44375,40.5 40.5,34.44375 40.5,27 C40.5,19.55625 34.44375,13.5 27,13.5 M24.75,22.5 L29.25,22.5 L29.25,18 L24.75,18 L24.75,22.5 Z M24.75,36 L29.25,36 L29.25,25.5 L24.75,25.5 L24.75,36 Z" id="Icon_Caution" fill="#FFFFFF"></path>
            </g>
        </g>
    </g>
</svg>