<?xml version="1.0" encoding="UTF-8"?>
<svg width="43px" height="43px" viewBox="0 0 43 43" version="1.1" xmlns="http://www.w3.org/2000/svg" xmlns:xlink="http://www.w3.org/1999/xlink">
    <!-- Generator: Sketch 50.2 (55047) - http://www.bohemiancoding.com/sketch -->
    <title>Icon_Quiet_Evening</title>
    <desc>Created with Sketch.</desc>
    <defs></defs>
    <g id="Kiosk" stroke="none" stroke-width="1" fill="none" fill-rule="evenodd">
        <g id="Mobilet_Kiosk_01_FilterMood" transform="translate(-712.000000, -450.000000)" fill="#FFFFFF">
            <g id="mood_btns" transform="translate(77.000000, 303.000000)">
                <g id="btn_evening" transform="translate(601.000000, 121.000000)">
                    <g id="Group-3" transform="translate(34.000000, 26.000000)">
                        <path d="M34.1261243,30 C27.0831653,29.5797426 20.3783625,26.041942 16.1261243,20 C12.2883568,14.2097398 11.4247229,6.67816961 14.1261243,0 C4.73075515,3.5911054 -0.93045061,13.0438873 0.126124275,23 C1.51257017,32.8223945 9.30372976,40.6135541 19.1261243,42 C29.082237,43.0565749 38.5350189,37.3953691 42.1261243,28 C39.6156287,29.0793804 36.9444772,29.5809633 34.1261243,30 L34.1261243,30 Z M22.1261243,37 C15.8001331,36.9949579 10.3058637,33.8127135 7.12612427,29 C4.37459883,23.495183 4.38905532,17.1452047 7.12612427,12 C9.2020568,23.7269717 18.4008533,32.9271023 30.1261243,35 C27.5830701,36.2310172 24.6920502,37.0071404 22.1261243,37 L22.1261243,37 Z" id="Icon_Quiet_Evening"></path>
                    </g>
                </g>
            </g>
        </g>
    </g>
</svg>