<?xml version="1.0" encoding="UTF-8"?>
<svg width="40px" height="42px" viewBox="0 0 40 42" version="1.1" xmlns="http://www.w3.org/2000/svg" xmlns:xlink="http://www.w3.org/1999/xlink">
    <!-- Generator: Sketch 50.2 (55047) - http://www.bohemiancoding.com/sketch -->
    <title>Icon_Family_Fun</title>
    <desc>Created with Sketch.</desc>
    <defs></defs>
    <g id="Kiosk" stroke="none" stroke-width="1" fill="none" fill-rule="evenodd">
        <g id="Mobilet_Kiosk_01_FilterMood" transform="translate(-423.000000, -448.000000)" fill="#FFFFFF">
            <g id="mood_btns" transform="translate(77.000000, 303.000000)">
                <g id="btn_family_fun" transform="translate(297.000000, 121.000000)">
                    <g id="icon_typo" transform="translate(49.000000, 24.000000)">
                        <path d="M27.2727273,18.2608696 C32.2934977,18.2608696 36.3636364,14.1730347 36.3636364,9.13043478 C36.3636364,4.08783489 32.2934977,3.08770191e-16 27.2727273,0 C22.2519568,-3.08770191e-16 18.1818182,4.08783489 18.1818182,9.13043478 C18.1818182,14.1730347 22.2519568,18.2608696 27.2727273,18.2608696 Z M27.2727273,5.47826087 C29.2810355,5.47826087 30.9090909,7.11339483 30.9090909,9.13043478 C30.9090909,11.1474747 29.2810355,12.7826087 27.2727273,12.7826087 C25.2644191,12.7826087 23.6363636,11.1474747 23.6363636,9.13043478 C23.6363636,7.11339483 25.2644191,5.47826087 27.2727273,5.47826087 Z M40,26.4782609 L20,26.4782609 L20,36.5217391 L34.5454545,36.5217391 L34.5454545,31.9565217 L40,31.9565217 L40,42 L14.5454545,42 L14.5454545,21 L40,21 L40,26.4782609 Z M0,42 L0,30.1304348 L11.8181818,30.1304348 L11.8181818,35.6086957 L5.45454545,35.6086957 L5.45454545,42 L0,42 Z M5.90909091,27.3913043 C3.64974421,27.3913043 1.81818182,25.5517786 1.81818182,23.2826087 C1.81818182,21.0134387 3.64974421,19.173913 5.90909091,19.173913 C8.16843761,19.173913 10,21.0134387 10,23.2826087 C10,25.5517786 8.16843761,27.3913043 5.90909091,27.3913043 Z" id="Icon_Family_Fun"></path>
                    </g>
                </g>
            </g>
        </g>
    </g>
</svg>