<?xml version="1.0" encoding="UTF-8"?>
<svg width="24px" height="24px" viewBox="0 0 24 24" version="1.1" xmlns="http://www.w3.org/2000/svg" xmlns:xlink="http://www.w3.org/1999/xlink">
    <!-- Generator: Sketch 51.1 (57501) - http://www.bohemiancoding.com/sketch -->
    <title>Icon_Info</title>
    <desc>Created with Sketch.</desc>
    <defs></defs>
    <g id="Symbols" stroke="none" stroke-width="1" fill="none" fill-rule="evenodd">
        <g id="Top" transform="translate(-929.000000, -39.000000)" fill="#FFFFFF" fill-rule="nonzero">
            <g id="Icon_Info">
                <g transform="translate(929.000000, 39.000000)">
                    <path d="M12,0 C15.1825979,1.94877915e-16 18.2348448,1.26428208 20.4852814,3.51471863 C22.7357179,5.76515517 24,8.81740212 24,12 C24,18.627417 18.627417,24 12,24 C5.372583,24 -8.11624501e-16,18.627417 0,12 C8.11624501e-16,5.372583 5.372583,-4.05812251e-16 12,0 Z M12,21 C16.9705627,21 21,16.9705627 21,12 C21,7.02943725 16.9705627,3 12,3 C7.02943725,3 3,7.02943725 3,12 C3,16.9705627 7.02943725,21 12,21 Z M10.5,11 L13.5,11 L13.5,18 L10.5,18 L10.5,11 Z M10.5,6 L13.5,6 L13.5,9 L10.5,9 L10.5,6 Z"></path>
                </g>
            </g>
        </g>
    </g>
</svg>