<?xml version="1.0" encoding="UTF-8"?>
<svg width="43px" height="40px" viewBox="0 0 43 40" version="1.1" xmlns="http://www.w3.org/2000/svg" xmlns:xlink="http://www.w3.org/1999/xlink">
    <!-- Generator: Sketch 50.2 (55047) - http://www.bohemiancoding.com/sketch -->
    <title>Icon_Music</title>
    <desc>Created with Sketch.</desc>
    <defs></defs>
    <g id="Kiosk" stroke="none" stroke-width="1" fill="none" fill-rule="evenodd">
        <g id="Mobilet_Kiosk_01_FilterMood" transform="translate(-452.000000, -331.000000)" fill="#FFFFFF">
            <g id="mood_btns" transform="translate(77.000000, 303.000000)">
                <g id="btn_music" transform="translate(301.000000, 1.000000)">
                    <g id="Group-4" transform="translate(74.000000, 27.000000)">
                        <path d="M42.030621,0 L10.030621,0 L10.030621,24 C7.29533333,22.7183476 3.69183436,23.790466 2.03062104,27 C-0.446012283,29.2117808 -0.503995196,32.9368547 1.03062104,36 C3.46315455,38.4818492 7.03157373,39.6634089 10.030621,39 C13.5695549,37.5968283 15.7864394,34.5866006 16.030621,31 L16.030621,13 L31.030621,13 L31.030621,8 L16.030621,8 L16.030621,5 L37.030621,5 L37.030621,19 C33.5453318,17.5201875 29.9418328,18.5923059 28.030621,21 C25.8039861,24.0136207 25.7460032,27.7386946 28.030621,31 C29.713153,33.2836892 33.2815722,34.4652488 37.030621,33 C39.8195533,32.3986682 42.0364378,29.3884406 42.030621,26 C42.0293686,25.7012725 42.0118414,25.4120379 42.030621,25 L42.030621,25 L42.030621,0 Z M7.03062104,34 C6.14990916,34 5.03062104,32.8807119 5.03062104,32 C5.03062104,30.1192881 6.14990916,29 7.03062104,29 C8.91133291,29 10.030621,30.1192881 10.030621,32 C10.030621,32.8807119 8.91133291,34 7.03062104,34 Z M34.030621,28 C32.1499092,28 31.030621,26.8807119 31.030621,26 C31.030621,24.1192881 32.1499092,23 34.030621,23 C34.9113329,23 36.030621,24.1192881 36.030621,26 C36.030621,26.8807119 34.9113329,28 34.030621,28 Z" id="Icon_Music"></path>
                    </g>
                </g>
            </g>
        </g>
    </g>
</svg>