<?xml version="1.0" encoding="UTF-8"?>
<svg width="35px" height="36px" viewBox="0 0 35 36" version="1.1" xmlns="http://www.w3.org/2000/svg" xmlns:xlink="http://www.w3.org/1999/xlink">
    <!-- Generator: Sketch 50.2 (55047) - http://www.bohemiancoding.com/sketch -->
    <title>Icon_QR</title>
    <desc>Created with Sketch.</desc>
    <defs></defs>
    <g id="Kiosk" stroke="none" stroke-width="1" fill="none" fill-rule="evenodd">
        <g id="Mobilet_Kiosk_02_TicketPrint_Select" transform="translate(-391.000000, -416.000000)" fill="#98AAB7">
            <g id="Cta" transform="translate(347.000000, 389.000000)">
                <g id="Group" transform="translate(44.000000, 27.000000)">
                    <path d="M16.2790698,36 L35,36 L35,16.3636364 L16.2790698,16.3636364 L16.2790698,36 Z M21.1627907,31.0909091 L21.1627907,21.2727273 L30.1162791,21.2727273 L30.1162791,31.0909091 L21.1627907,31.0909091 Z M8.13953488,22.0909091 L8.13953488,17.1818182 L13.0232558,17.1818182 L13.0232558,22.0909091 L8.13953488,22.0909091 Z M0,22.0909091 L0,17.1818182 L4.88372093,17.1818182 L4.88372093,22.0909091 L0,22.0909091 Z M17.0930233,13.0909091 L17.0930233,8.18181818 L21.9767442,8.18181818 L21.9767442,13.0909091 L17.0930233,13.0909091 Z M17.0930233,4.90909091 L17.0930233,0 L21.9767442,0 L21.9767442,4.90909091 L17.0930233,4.90909091 Z M26.0465116,13.0909091 L26.0465116,0 L35,0 L35,13.0909091 L26.0465116,13.0909091 Z M0,13.0909091 L0,0 L13.0232558,0 L13.0232558,13.0909091 L0,13.0909091 Z M0,36 L0,26.1818182 L13.0232558,26.1818182 L13.0232558,36 L0,36 Z" id="Icon_QR"></path>
                </g>
            </g>
        </g>
    </g>
</svg>