<?xml version="1.0" encoding="UTF-8"?>
<svg width="15px" height="16px" viewBox="0 0 15 16" version="1.1" xmlns="http://www.w3.org/2000/svg" xmlns:xlink="http://www.w3.org/1999/xlink">
    <!-- Generator: Sketch 50.2 (55047) - http://www.bohemiancoding.com/sketch -->
    <title>Icon_Ticket_Standard</title>
    <desc>Created with Sketch.</desc>
    <defs></defs>
    <g id="Kiosk" stroke="none" stroke-width="1" fill="none" fill-rule="evenodd">
        <g id="Mobilet_Kiosk_03_Detail_Single" transform="translate(-616.000000, -403.000000)" fill="#FFFFFF">
            <g id="Ticket_Options" transform="translate(588.000000, 249.000000)">
                <g transform="translate(0.000000, 127.000000)" id="Icon_Ticket_Standard">
                    <path d="M43,34 L41,34 L41,29 L39,29 C38.3261585,29.6589148 36.6738415,29.6589148 36,29 L34,29 L34,37 L41,37 L41,36 L43,36 L43,39 L32,39 L32,27 L37,27 C36.7666667,27.3398675 37.0949912,27.6153846 38,28 C37.9050088,27.6153846 38.2333333,27.3398675 39,27 L43,27 L43,34 Z M30,31 L30,41 L39,41 L39,43 L28,43 L28,31 L30,31 Z"></path>
                </g>
            </g>
        </g>
    </g>
</svg>