<?xml version="1.0" encoding="UTF-8"?>
<svg width="134px" height="30px" viewBox="0 0 134 30" version="1.1" xmlns="http://www.w3.org/2000/svg" xmlns:xlink="http://www.w3.org/1999/xlink">
    <!-- Generator: Sketch 50.2 (55047) - http://www.bohemiancoding.com/sketch -->
    <title>Logo_Mobilet</title>
    <desc>Created with Sketch.</desc>
    <defs>
        <polygon id="path-1" points="0.121434568 17 16.911558 17 16.911558 6.375e-05 0.121434568 6.375e-05 0.121434568 17"></polygon>
        <polygon id="path-3" points="0 30 135 30 135 0 0 0"></polygon>
    </defs>
    <g id="Symbols" stroke="none" stroke-width="1" fill="none" fill-rule="evenodd">
        <g id="Navigation_Date" transform="translate(-28.000000, -20.000000)">
            <g id="Navigation">
                <g id="Logo_Mobilet" transform="translate(27.000000, 20.000000)">
                    <g id="Group-3" transform="translate(109.000000, 13.000000)">
                        <mask id="mask-2" fill="white">
                            <use xlink:href="#path-1"></use>
                        </mask>
                        <g id="Clip-2"></g>
                        <path d="M4.63252099,6.77073875 C5.29132346,5.25858875 6.78207654,4.19863875 8.5164963,4.19863875 C10.250916,4.19863875 11.7414593,5.25858875 12.4004716,6.77073875 L4.63252099,6.77073875 Z M16.911558,8.50006375 C16.911558,7.87403875 16.8425086,7.26480125 16.7149037,6.67723875 C15.8886198,2.86350125 12.5274469,6.375e-05 8.5164963,6.375e-05 C3.88745926,6.375e-05 0.121434568,3.81316375 0.121434568,8.50006375 C0.121434568,13.1867512 3.88745926,17.0000637 8.5164963,17.0000637 C11.5122741,17.0000637 14.1449654,15.4016387 15.6308914,13.0042137 L11.8902617,11.0175512 C11.1252617,12.0660262 9.89979259,12.7500637 8.5164963,12.7500637 C6.83391605,12.7500637 5.38324938,11.7402637 4.71458272,10.2897387 L16.7224593,10.2897387 C16.845237,9.71237625 16.911558,9.11376375 16.911558,8.50006375 L16.911558,8.50006375 Z" id="Fill-1" fill="#FFFFFF" mask="url(#mask-2)"></path>
                    </g>
                    <polygon id="Fill-4" fill="#FFFFFF" points="54.60242 7 54.60242 7 54.6 7 54.6 7.00480909 48.0011 20.4096273 45.12922 14.5753636 41.4 7 37 7 37 30 41.4 30 41.4 16.8678364 45.8077 25.8181818 50.19648 25.8181818 50.2077 25.8181818 54.6 16.8728545 54.6 30 59 30 59 7"></polygon>
                    <mask id="mask-4" fill="white">
                        <use xlink:href="#path-3"></use>
                    </mask>
                    <g id="Clip-7"></g>
                    <polygon id="Fill-6" fill="#FFFFFF" mask="url(#mask-4)" points="97 12 102 12 102 7 97 7"></polygon>
                    <polygon id="Fill-8" fill="#FFFFFF" mask="url(#mask-4)" points="97 30 102 30 102 13 97 13"></polygon>
                    <polygon id="Fill-9" fill="#FFFFFF" mask="url(#mask-4)" points="103 30 108 30 108 7 103 7"></polygon>
                    <polygon id="Fill-10" fill="#FFFFFF" mask="url(#mask-4)" points="132 13.2546118 132 7 128 7 128 30 132 30 132 17.4409589 136 17.4409589 136 13.2546118"></polygon>
                    <polygon id="Fill-11" fill="#FF4F00" mask="url(#mask-4)" points="1 0 1 17 9.5 17 9.5 8.5 18 8.5 18 0"></polygon>
                    <polygon id="Fill-12" fill="#6C31ED" mask="url(#mask-4)" points="22.5 13 22.5 21.5 14 21.5 14 30 31 30 31 13"></polygon>
                    <path d="M68.5002125,17.1987875 C66.1285,17.1987875 64.199,19.1282875 64.199,21.5 C64.199,23.8717125 66.1285,25.8012125 68.5002125,25.8012125 C70.8717125,25.8012125 72.8012125,23.8717125 72.8012125,21.5 C72.8012125,19.1282875 70.8717125,17.1987875 68.5002125,17.1987875 M68.5002125,30 C63.8131,30 60,26.1869 60,21.5 C60,16.8133125 63.8131,13 68.5002125,13 C73.1871125,13 77,16.8133125 77,21.5 C77,26.1869 73.1871125,30 68.5002125,30" id="Fill-13" fill="#FFFFFF" mask="url(#mask-4)"></path>
                    <path d="M87.5002125,25.8685727 C85.342275,25.8685727 83.5557875,24.2953727 83.25,22.2542273 L83.25,21.6363636 L83.25,21.0182909 C83.5557875,18.9773545 85.342275,17.4041545 87.5002125,17.4041545 C89.8717125,17.4041545 91.8012125,19.3027 91.8012125,21.6363636 C91.8012125,23.9700273 89.8717125,25.8685727 87.5002125,25.8685727 M87.5002125,13.2727273 C85.952575,13.2727273 84.5014125,13.6840091 83.25,14.3980545 L83.25,7 L79,7 L79,30 L83.25,30 L83.25,28.8746727 C84.5014125,29.5887182 85.952575,30 87.5002125,30 C92.1871125,30 96,26.2478636 96,21.6363636 C96,17.0246545 92.1871125,13.2727273 87.5002125,13.2727273" id="Fill-14" fill="#FFFFFF" mask="url(#mask-4)"></path>
                </g>
            </g>
        </g>
    </g>
</svg>