<?xml version="1.0" encoding="UTF-8" standalone="no"?>
<!DOCTYPE svg PUBLIC "-//W3C//DTD SVG 1.1//EN"
 "http://www.w3.org/Graphics/SVG/1.1/DTD/svg11.dtd">
<!-- Generated by graphviz version 2.40.1 (20161225.0304)
 -->
<!-- Title: dependencies Pages: 1 -->
<svg width="808pt" height="284pt"
 viewBox="0.00 0.00 808.00 284.00" xmlns="http://www.w3.org/2000/svg" xmlns:xlink="http://www.w3.org/1999/xlink">
<g id="graph0" class="graph" transform="scale(1 1) rotate(0) translate(4 280)">
<title>dependencies</title>
<polygon fill="#ffffff" stroke="transparent" points="-4,4 -4,-280 804,-280 804,4 -4,4"/>
<text text-anchor="start" x="379.0091" y="-42.4" font-family="sans-serif" font-weight="bold" font-size="14.00" fill="#000000">Legend</text>
<polygon fill="#ffffb3" stroke="transparent" points="166,-10 166,-30 186,-30 186,-10 166,-10"/>
<text text-anchor="start" x="189.629" y="-15.4" font-family="sans-serif" font-size="14.00" fill="#000000"> &#160;Declarations</text>
<polygon fill="#8dd3c7" stroke="transparent" points="279,-10 279,-30 299,-30 299,-10 279,-10"/>
<text text-anchor="start" x="302.7251" y="-15.4" font-family="sans-serif" font-size="14.00" fill="#000000"> &#160;Module</text>
<polygon fill="#80b1d3" stroke="transparent" points="365,-10 365,-30 385,-30 385,-10 365,-10"/>
<text text-anchor="start" x="388.7812" y="-15.4" font-family="sans-serif" font-size="14.00" fill="#000000"> &#160;Bootstrap</text>
<polygon fill="#fdb462" stroke="transparent" points="462,-10 462,-30 482,-30 482,-10 462,-10"/>
<text text-anchor="start" x="485.6732" y="-15.4" font-family="sans-serif" font-size="14.00" fill="#000000"> &#160;Providers</text>
<polygon fill="#fb8072" stroke="transparent" points="558,-10 558,-30 578,-30 578,-10 558,-10"/>
<text text-anchor="start" x="581.7258" y="-15.4" font-family="sans-serif" font-size="14.00" fill="#000000"> &#160;Exports</text>
<g id="clust1" class="cluster">
<title>cluster_AppModule</title>
<polygon fill="none" stroke="#000000" stroke-dasharray="1,5" points="8,-70 8,-268 792,-268 792,-70 8,-70"/>
</g>
<g id="clust2" class="cluster">
<title>cluster_AppModule_declarations</title>
<polygon fill="none" stroke="#000000" points="662,-78 662,-130 784,-130 784,-78 662,-78"/>
</g>
<g id="clust4" class="cluster">
<title>cluster_AppModule_imports</title>
<polygon fill="none" stroke="#000000" points="510,-78 510,-130 654,-130 654,-78 510,-78"/>
</g>
<g id="clust6" class="cluster">
<title>cluster_AppModule_bootstrap</title>
<polygon fill="none" stroke="#000000" points="416,-208 416,-260 540,-260 540,-208 416,-208"/>
</g>
<g id="clust7" class="cluster">
<title>cluster_AppModule_providers</title>
<polygon fill="none" stroke="#000000" points="16,-78 16,-130 502,-130 502,-78 16,-78"/>
</g>
<!-- AppComponent -->
<g id="node1" class="node">
<title>AppComponent</title>
<polygon fill="#ffffb3" stroke="#000000" points="775.9399,-122 670.0601,-122 670.0601,-86 775.9399,-86 775.9399,-122"/>
<text text-anchor="middle" x="723" y="-99.8" font-family="Times,serif" font-size="14.00" fill="#000000">AppComponent</text>
</g>
<!-- AppModule -->
<g id="node2" class="node">
<title>AppModule</title>
<polygon fill="#8dd3c7" stroke="#000000" points="519.6571,-187 516.6571,-191 495.6571,-191 492.6571,-187 436.3429,-187 436.3429,-151 519.6571,-151 519.6571,-187"/>
<text text-anchor="middle" x="478" y="-164.8" font-family="Times,serif" font-size="14.00" fill="#000000">AppModule</text>
</g>
<!-- AppComponent&#45;&gt;AppModule -->
<g id="edge1" class="edge">
<title>AppComponent&#45;&gt;AppModule</title>
<path fill="none" stroke="#000000" d="M723,-122.2843C723,-143.3211 723,-175 723,-175 723,-175 529.8386,-175 529.8386,-175"/>
<polygon fill="#000000" stroke="#000000" points="529.8387,-171.5001 519.8386,-175 529.8386,-178.5001 529.8387,-171.5001"/>
</g>
<!-- AppComponent  -->
<g id="node4" class="node">
<title>AppComponent </title>
<polygon fill="#80b1d3" stroke="#000000" points="532.439,-252 423.561,-252 423.561,-216 532.439,-216 532.439,-252"/>
<text text-anchor="middle" x="478" y="-229.8" font-family="Times,serif" font-size="14.00" fill="#000000">AppComponent </text>
</g>
<!-- AppModule&#45;&gt;AppComponent  -->
<g id="edge3" class="edge">
<title>AppModule&#45;&gt;AppComponent </title>
<path fill="none" stroke="#000000" stroke-dasharray="1,5" d="M478,-187.1061C478,-187.1061 478,-205.991 478,-205.991"/>
<polygon fill="#000000" stroke="#000000" points="474.5001,-205.9909 478,-215.991 481.5001,-205.991 474.5001,-205.9909"/>
</g>
<!-- AppRoutingModule -->
<g id="node3" class="node">
<title>AppRoutingModule</title>
<polygon fill="#8dd3c7" stroke="#000000" points="646.2744,-122 643.2744,-126 622.2744,-126 619.2744,-122 517.7256,-122 517.7256,-86 646.2744,-86 646.2744,-122"/>
<text text-anchor="middle" x="582" y="-99.8" font-family="Times,serif" font-size="14.00" fill="#000000">AppRoutingModule</text>
</g>
<!-- AppRoutingModule&#45;&gt;AppModule -->
<g id="edge2" class="edge">
<title>AppRoutingModule&#45;&gt;AppModule</title>
<path fill="none" stroke="#000000" d="M526.1489,-122.0225C526.1489,-139.3734 526.1489,-163 526.1489,-163 526.1489,-163 525.5194,-163 525.5194,-163"/>
<polygon fill="#000000" stroke="#000000" points="529.8543,-159.5002 519.8542,-163 529.8542,-166.5002 529.8543,-159.5002"/>
</g>
<!-- ResponseInterceptorService -->
<g id="node5" class="node">
<title>ResponseInterceptorService</title>
<ellipse fill="#fdb462" stroke="#000000" cx="375" cy="-104" rx="119.219" ry="18"/>
<text text-anchor="middle" x="375" y="-99.8" font-family="Times,serif" font-size="14.00" fill="#000000">ResponseInterceptorService</text>
</g>
<!-- ResponseInterceptorService&#45;&gt;AppModule -->
<g id="edge4" class="edge">
<title>ResponseInterceptorService&#45;&gt;AppModule</title>
<path fill="none" stroke="#000000" d="M465.2656,-115.922C465.2656,-115.922 465.2656,-140.7669 465.2656,-140.7669"/>
<polygon fill="#000000" stroke="#000000" points="461.7657,-140.7669 465.2656,-150.7669 468.7657,-140.7669 461.7657,-140.7669"/>
</g>
<!-- TokenInterceptorService -->
<g id="node6" class="node">
<title>TokenInterceptorService</title>
<ellipse fill="#fdb462" stroke="#000000" cx="131" cy="-104" rx="107.0415" ry="18"/>
<text text-anchor="middle" x="131" y="-99.8" font-family="Times,serif" font-size="14.00" fill="#000000">TokenInterceptorService</text>
</g>
<!-- TokenInterceptorService&#45;&gt;AppModule -->
<g id="edge5" class="edge">
<title>TokenInterceptorService&#45;&gt;AppModule</title>
<path fill="none" stroke="#000000" d="M131,-122.1061C131,-141.3391 131,-169 131,-169 131,-169 426.1437,-169 426.1437,-169"/>
<polygon fill="#000000" stroke="#000000" points="426.1437,-172.5001 436.1437,-169 426.1437,-165.5001 426.1437,-172.5001"/>
</g>
</g>
</svg>
